<svg xmlns="http://www.w3.org/2000/svg" width="200" height="200" viewBox="0 0 200 200">
  <defs>
    <linearGradient id="bg" x1="0" y1="0" x2="1" y2="1">
      <stop offset="0%" stop-color="#0f9d58" />
      <stop offset="100%" stop-color="#5ad6a8" />
    </linearGradient>
  </defs>
  <rect width="200" height="200" rx="20" fill="url(#bg)" />
  <circle cx="100" cy="76" r="40" fill="#fff" fill-opacity="0.9" />
  <rect x="42" y="124" width="116" height="60" rx="24" fill="#fff" fill-opacity="0.9" />
  <path d="M100 120c-38 0-64 22-64 48v16h128v-16c0-26-26-48-64-48z" fill="#0a6135" fill-opacity="0.22" />
  <path d="M100 28c22 0 40 18 40 40s-18 40-40 40-40-18-40-40 18-40 40-40zm0 18c-12 0-22 10-22 22s10 22 22 22 22-10 22-22-10-22-22-22z" fill="#0a6135" fill-opacity="0.22" />
</svg>
