<svg width="23" height="30" viewBox="0 0 23 30" fill="none" xmlns="http://www.w3.org/2000/svg">
<line x1="0.693375" y1="1.13868" x2="8.13867" y2="12.3066" stroke="black" stroke-linecap="square"/>
<line y1="-0.5" x2="14.4222" y2="-0.5" transform="matrix(-0.5547 0.83205 0.83205 0.5547 23 1)" stroke="black"/>
<line x1="0.5" y1="0.5" x2="22.5" y2="0.5" stroke="black" stroke-linecap="square"/>
<line x1="8.5" y1="13" x2="8.5" y2="29" stroke="black"/>
<line x1="14.5" y1="13" x2="14.5" y2="26" stroke="black"/>
<path d="M14.5 26L8.5 29.5" stroke="black"/>
<mask id="path-7-inside-1_1_28" fill="white">
<path d="M9 13C9 13.5523 8.77614 14 8.5 14C8.22386 14 8.00008 13.5523 8.00008 13C8.00008 12.4477 8.22394 12 8.50008 12C8.50008 12 9 12.5 9 13Z"/>
<path d="M15.0001 13C15.0001 13.5261 14.7761 14 14.5 14C14.2239 14 14 13.5523 14.0001 13C14.0002 12.5 14.5002 12 14.5002 12C14.5002 12 15.0001 12.4739 15.0001 13Z"/>
</mask>
<path d="M9 13C9 13.5523 8.77614 14 8.5 14C8.22386 14 8.00008 13.5523 8.00008 13C8.00008 12.4477 8.22394 12 8.50008 12C8.50008 12 9 12.5 9 13Z" fill="black"/>
<path d="M15.0001 13C15.0001 13.5261 14.7761 14 14.5 14C14.2239 14 14 13.5523 14.0001 13C14.0002 12.5 14.5002 12 14.5002 12C14.5002 12 15.0001 12.4739 15.0001 13Z" fill="black"/>
<path d="M8.50008 12L9.20725 11.293L8.91435 11H8.50008V12ZM14.0001 13L13.0001 12.9998L14.0001 13ZM14.5002 12L15.1881 11.2742L14.4815 10.6045L13.7931 11.2929L14.5002 12ZM9 13H8C8 13.0716 7.99264 13.1336 7.98235 13.1823C7.97727 13.2064 7.97186 13.2253 7.9672 13.2391C7.9649 13.2459 7.96291 13.2511 7.96143 13.2547C7.95994 13.2583 7.9591 13.26 7.95913 13.2599C7.95915 13.2598 7.96027 13.2576 7.96277 13.2535C7.96527 13.2494 7.96947 13.2428 7.97575 13.2343C7.98772 13.2182 8.01091 13.19 8.04878 13.1579C8.1269 13.0919 8.28218 13 8.5 13V14V15C9.2209 15 9.60435 14.4416 9.74798 14.1543C9.92152 13.8072 10 13.3977 10 13H9ZM8.5 14V13C8.71784 13 8.87314 13.0919 8.95128 13.158C8.98916 13.19 9.01236 13.2182 9.02433 13.2344C9.03061 13.2429 9.03482 13.2494 9.03731 13.2536C9.03981 13.2577 9.04093 13.2599 9.04096 13.26C9.04099 13.26 9.04014 13.2583 9.03865 13.2547C9.03717 13.2511 9.03518 13.246 9.03288 13.2392C9.02822 13.2253 9.02282 13.2064 9.01774 13.1824C9.00744 13.1337 9.00008 13.0716 9.00008 13H8.00008H7.00008C7.00008 13.3977 7.07852 13.8072 7.25202 14.1542C7.39562 14.4415 7.77904 15 8.5 15V14ZM8.00008 13H9.00008C9.00008 12.9284 9.00744 12.8664 9.01774 12.8177C9.02282 12.7936 9.02822 12.7747 9.03288 12.7609C9.03518 12.7541 9.03717 12.7489 9.03865 12.7453C9.04014 12.7417 9.04099 12.74 9.04096 12.7401C9.04093 12.7402 9.03982 12.7424 9.03731 12.7465C9.03482 12.7506 9.03061 12.7572 9.02433 12.7657C9.01237 12.7818 8.98917 12.81 8.9513 12.8421C8.87318 12.9081 8.7179 13 8.50008 13V12V11C7.77918 11 7.39574 11.5584 7.2521 11.8457C7.07856 12.1928 7.00008 12.6023 7.00008 13H8.00008ZM8.50008 12C7.79292 12.707 7.79275 12.7069 7.79258 12.7067C7.79252 12.7067 7.79236 12.7065 7.79225 12.7064C7.79203 12.7062 7.79182 12.706 7.79162 12.7057C7.79122 12.7053 7.79084 12.705 7.79049 12.7046C7.78979 12.7039 7.7892 12.7033 7.78872 12.7028C7.78775 12.7018 7.7872 12.7013 7.78704 12.7011C7.78672 12.7008 7.78793 12.702 7.79045 12.7047C7.79556 12.7102 7.80558 12.7211 7.81889 12.7367C7.84639 12.7688 7.8829 12.8146 7.91795 12.8671C8.00972 13.0048 8 13.0505 8 13H9H10C10 12.4495 9.74032 11.9952 9.58213 11.7579C9.4922 11.6229 9.40374 11.5125 9.3375 11.4352C9.30394 11.396 9.27491 11.364 9.25268 11.3402C9.24153 11.3283 9.232 11.3183 9.22436 11.3104C9.22053 11.3064 9.21718 11.303 9.21432 11.3001C9.21289 11.2986 9.21158 11.2973 9.2104 11.2961C9.20981 11.2955 9.20925 11.295 9.20873 11.2944C9.20846 11.2942 9.20821 11.2939 9.20796 11.2937C9.20784 11.2935 9.20766 11.2934 9.2076 11.2933C9.20742 11.2931 9.20725 11.293 8.50008 12ZM15.0001 13H14.0001C14.0001 13.1354 13.9688 13.2303 13.956 13.2564C13.9496 13.2696 13.9673 13.2257 14.034 13.167C14.1058 13.1038 14.2656 13 14.5 13V14V15C15.2426 15 15.621 14.4032 15.7511 14.1382C15.9193 13.7958 16.0001 13.3907 16.0001 13H15.0001ZM14.5 14V13C14.7178 13 14.8731 13.0919 14.9512 13.1579C14.9891 13.19 15.0123 13.2182 15.0243 13.2343C15.0305 13.2428 15.0348 13.2494 15.0372 13.2535C15.0398 13.2576 15.0409 13.2599 15.0409 13.2599C15.0409 13.26 15.0401 13.2583 15.0386 13.2547C15.0371 13.2511 15.0351 13.246 15.0328 13.2391C15.0282 13.2253 15.0228 13.2064 15.0177 13.1824C15.0074 13.1338 15.0001 13.0717 15.0001 13.0002L14.0001 13L13.0001 12.9998C13 13.3976 13.0785 13.8072 13.252 14.1543C13.3956 14.4416 13.7791 15 14.5 15V14ZM14.0001 13L15.0001 13.0002C15.0001 13.0507 14.9904 13.0049 15.0822 12.8672C15.1172 12.8146 15.1538 12.7688 15.1813 12.7367C15.1946 12.7212 15.2046 12.7103 15.2097 12.7048C15.2123 12.7021 15.2135 12.7008 15.2132 12.7012C15.213 12.7013 15.2124 12.7019 15.2115 12.7029C15.211 12.7034 15.2104 12.704 15.2097 12.7047C15.2093 12.705 15.209 12.7054 15.2086 12.7058C15.2084 12.706 15.2082 12.7062 15.2079 12.7064C15.2078 12.7065 15.2077 12.7067 15.2076 12.7068C15.2074 12.7069 15.2073 12.7071 14.5002 12C13.7931 11.2929 13.7929 11.2931 13.7927 11.2932C13.7926 11.2933 13.7925 11.2935 13.7923 11.2936C13.7921 11.2939 13.7918 11.2941 13.7916 11.2944C13.7911 11.2949 13.7905 11.2955 13.7899 11.2961C13.7887 11.2972 13.7874 11.2986 13.786 11.3C13.7831 11.3029 13.7798 11.3064 13.776 11.3103C13.7683 11.3182 13.7588 11.3282 13.7476 11.3401C13.7254 11.364 13.6964 11.396 13.6628 11.4351C13.5966 11.5124 13.5081 11.6229 13.4181 11.7578C13.2599 11.9951 13.0002 12.4493 13.0001 12.9998L14.0001 13ZM14.5002 12C13.8122 12.7258 13.812 12.7256 13.8118 12.7254C13.8118 12.7253 13.8116 12.7252 13.8115 12.725C13.8112 12.7248 13.811 12.7246 13.8107 12.7244C13.8103 12.7239 13.8098 12.7235 13.8094 12.7231C13.8086 12.7223 13.8079 12.7216 13.8073 12.721C13.806 12.7198 13.8052 12.719 13.8048 12.7186C13.8039 12.7178 13.8046 12.7184 13.8065 12.7204C13.8105 12.7245 13.8193 12.7336 13.8314 12.7472C13.8564 12.7753 13.8901 12.8163 13.9226 12.8641C14.0048 12.9853 14.0001 13.0329 14.0001 13H15.0001H16.0001C16.0001 12.441 15.7454 11.9886 15.5777 11.7413C15.4851 11.6049 15.3939 11.4945 15.3252 11.4173C15.2904 11.3782 15.2601 11.3463 15.2368 11.3224C15.225 11.3104 15.215 11.3003 15.2068 11.2923C15.2027 11.2883 15.1991 11.2847 15.1959 11.2817C15.1944 11.2802 15.1929 11.2788 15.1916 11.2776C15.191 11.277 15.1904 11.2764 15.1898 11.2758C15.1895 11.2755 15.1892 11.2753 15.1889 11.275C15.1888 11.2749 15.1886 11.2747 15.1885 11.2746C15.1883 11.2744 15.1881 11.2742 14.5002 12Z" fill="black" mask="url(#path-7-inside-1_1_28)"/>
<path d="M9 29.5C9 29.7761 8.77614 30 8.5 30C8.22386 30 8 29.7761 8 29.5C8 29.2239 8 24.5 8.5 29C8.77614 29 9 29.2239 9 29.5Z" fill="black"/>
<path d="M15 26C15 26.2761 14.7761 26.5 14.5 26.5C14.2239 26.5 14 26.7761 14 26.5C14 26.2238 14.2239 26 14.5 26C14.7761 26 15 23.5 15 26Z" fill="black"/>
</svg>
