<svg width="26" height="26" viewBox="0 0 26 26" fill="none" xmlns="http://www.w3.org/2000/svg">
<g clip-path="url(#clip0_487_713)">
<path d="M22.3157 10.5417C22.3157 17.9209 12.7518 24.2459 12.7518 24.2459C12.7518 24.2459 3.18799 17.9209 3.18799 10.5417C3.18799 8.02546 4.19561 5.61227 5.98918 3.83302C7.78275 2.05377 10.2153 1.0542 12.7518 1.0542C15.2883 1.0542 17.7209 2.05377 19.5145 3.83302C21.3081 5.61227 22.3157 8.02546 22.3157 10.5417Z" stroke="#878E8E" stroke-width="2" stroke-linecap="round" stroke-linejoin="round"/>
<path d="M12.7518 13.7042C14.5124 13.7042 15.9397 12.2883 15.9397 10.5417C15.9397 8.79505 14.5124 7.37915 12.7518 7.37915C10.9911 7.37915 9.56384 8.79505 9.56384 10.5417C9.56384 12.2883 10.9911 13.7042 12.7518 13.7042Z" stroke="#878E8E" stroke-width="2" stroke-linecap="round" stroke-linejoin="round"/>
</g>
<defs>
<clipPath id="clip0_487_713">
<rect width="25.5036" height="25.3" fill="white"/>
</clipPath>
</defs>
</svg>
