<svg width="31" height="31" viewBox="0 0 31 31" fill="none" xmlns="http://www.w3.org/2000/svg">
<ellipse cx="15.4084" cy="15.2854" rx="15.4084" ry="15.2854" fill="#256A70"/>
<path d="M10.2723 20.3804H9.48208C9.06295 20.3804 8.66098 20.2152 8.36461 19.9212C8.06823 19.6272 7.90173 19.2284 7.90173 18.8127V10.974C7.90173 10.5582 8.06823 10.1594 8.36461 9.86543C8.66098 9.57142 9.06295 9.40625 9.48208 9.40625H22.1249C22.544 9.40625 22.946 9.57142 23.2424 9.86543C23.5387 10.1594 23.7052 10.5582 23.7052 10.974V18.8127C23.7052 19.2284 23.5387 19.6272 23.2424 19.9212C22.946 20.2152 22.544 20.3804 22.1249 20.3804H21.3347" stroke="white" stroke-width="2" stroke-linecap="round" stroke-linejoin="round"/>
<path d="M15.8035 18.8127L19.7544 23.5159H11.8527L15.8035 18.8127Z" stroke="white" stroke-width="2" stroke-linecap="round" stroke-linejoin="round"/>
</svg>
